<mxfile host="app.diagrams.net" agent="Mozilla/5.0 (Windows NT 10.0; Win64; x64) AppleWebKit/537.36 (KHTML, like Gecko) Chrome/131.0.0.0 Safari/537.36" version="25.0.3">
  <diagram name="第 1 页" id="Zm2ZDWlx5PZop_hWEte4">
    <mxGraphModel dx="1133" dy="662" grid="0" gridSize="10" guides="1" tooltips="1" connect="1" arrows="1" fold="1" page="0" pageScale="1" pageWidth="827" pageHeight="1169" math="0" shadow="0">
      <root>
        <mxCell id="0" />
        <mxCell id="1" parent="0" />
        <mxCell id="BQ5nZTm5eQXDG6gNVrJI-13" style="edgeStyle=orthogonalEdgeStyle;rounded=0;orthogonalLoop=1;jettySize=auto;html=1;entryX=0.5;entryY=0;entryDx=0;entryDy=0;" parent="1" source="BQ5nZTm5eQXDG6gNVrJI-1" target="BQ5nZTm5eQXDG6gNVrJI-2" edge="1">
          <mxGeometry relative="1" as="geometry">
            <Array as="points">
              <mxPoint x="448" y="330" />
              <mxPoint x="203" y="330" />
            </Array>
          </mxGeometry>
        </mxCell>
        <mxCell id="BQ5nZTm5eQXDG6gNVrJI-14" style="edgeStyle=orthogonalEdgeStyle;rounded=0;orthogonalLoop=1;jettySize=auto;html=1;" parent="1" source="BQ5nZTm5eQXDG6gNVrJI-1" target="BQ5nZTm5eQXDG6gNVrJI-3" edge="1">
          <mxGeometry relative="1" as="geometry">
            <Array as="points">
              <mxPoint x="448" y="330" />
              <mxPoint x="368" y="330" />
            </Array>
          </mxGeometry>
        </mxCell>
        <mxCell id="BQ5nZTm5eQXDG6gNVrJI-15" style="edgeStyle=orthogonalEdgeStyle;rounded=0;orthogonalLoop=1;jettySize=auto;html=1;entryX=0.5;entryY=0;entryDx=0;entryDy=0;" parent="1" source="BQ5nZTm5eQXDG6gNVrJI-1" target="BQ5nZTm5eQXDG6gNVrJI-4" edge="1">
          <mxGeometry relative="1" as="geometry">
            <Array as="points">
              <mxPoint x="448" y="330" />
              <mxPoint x="519" y="330" />
            </Array>
          </mxGeometry>
        </mxCell>
        <mxCell id="BQ5nZTm5eQXDG6gNVrJI-1" value="&lt;font style=&quot;font-size: 17px;&quot;&gt;图像融合&lt;/font&gt;" style="rounded=1;whiteSpace=wrap;html=1;fillColor=#dae8fc;strokeColor=none;" parent="1" vertex="1">
          <mxGeometry x="388" y="235" width="120" height="60" as="geometry" />
        </mxCell>
        <mxCell id="BQ5nZTm5eQXDG6gNVrJI-2" value="&lt;font style=&quot;font-size: 17px;&quot;&gt;医学影像&lt;/font&gt;" style="rounded=1;whiteSpace=wrap;html=1;fillColor=#e1d5e7;strokeColor=none;" parent="1" vertex="1">
          <mxGeometry x="143" y="375" width="120" height="60" as="geometry" />
        </mxCell>
        <mxCell id="BQ5nZTm5eQXDG6gNVrJI-3" value="&lt;span style=&quot;font-size: 17px;&quot;&gt;安防监控&lt;/span&gt;" style="rounded=1;whiteSpace=wrap;html=1;fillColor=#e1d5e7;strokeColor=none;" parent="1" vertex="1">
          <mxGeometry x="301" y="375" width="120" height="60" as="geometry" />
        </mxCell>
        <mxCell id="BQ5nZTm5eQXDG6gNVrJI-4" value="&lt;span style=&quot;font-size: 17px;&quot;&gt;自动驾驶&lt;/span&gt;" style="rounded=1;whiteSpace=wrap;html=1;fillColor=#e1d5e7;strokeColor=none;" parent="1" vertex="1">
          <mxGeometry x="459" y="375" width="120" height="60" as="geometry" />
        </mxCell>
        <mxCell id="BQ5nZTm5eQXDG6gNVrJI-5" value="&lt;span style=&quot;font-size: 17px;&quot;&gt;遥感监测&lt;/span&gt;" style="rounded=1;whiteSpace=wrap;html=1;fillColor=#e1d5e7;strokeColor=none;" parent="1" vertex="1">
          <mxGeometry x="617" y="375" width="120" height="60" as="geometry" />
        </mxCell>
        <mxCell id="BQ5nZTm5eQXDG6gNVrJI-16" style="edgeStyle=orthogonalEdgeStyle;rounded=0;orthogonalLoop=1;jettySize=auto;html=1;entryX=0.5;entryY=0;entryDx=0;entryDy=0;" parent="1" source="BQ5nZTm5eQXDG6gNVrJI-1" target="BQ5nZTm5eQXDG6gNVrJI-5" edge="1">
          <mxGeometry relative="1" as="geometry">
            <Array as="points">
              <mxPoint x="448" y="330" />
              <mxPoint x="677" y="330" />
            </Array>
          </mxGeometry>
        </mxCell>
      </root>
    </mxGraphModel>
  </diagram>
</mxfile>
